<svg xmlns="http://www.w3.org/2000/svg" viewBox="0 0 512 512">
	<g fill="#6e6e6e">
		<path
			d="M406 197v-47C406 67.3 338.7 0 256 0S106 67.3 106 150v47c-22.8 4.6-40 24.8-40 49v56.8c0 5.5 4.5 10 10 10s10-4.5 10-10V246c0-16.5 13.5-30 30-30h280c16.5 0 30 13.5 30 30v216c0 13-8.4 24.2-20 28.3V430c0-5.5-4.5-10-10-10s-10 4.5-10 10v62H116c-16.5 0-30-13.5-30-30v-79c0-5.5-4.5-10-10-10s-10 4.5-10 10v79c0 27.6 22.4 50 50 50h280c27.6 0 50-22.4 50-50V246c0-24.1-17.2-44.3-40-49zm-226-1v-46c0-41.9 34.1-76 76-76s76 34.1 76 76v46H180zm172 0v-46c0-52.9-43.1-96-96-96s-96 43.1-96 96v46h-34v-46c0-71.7 58.3-130 130-130s130 58.3 130 130v46h-34z" />
		<path
			d="M76 352.5c2.6 0 5.2-1.1 7.1-2.9 1.9-1.9 2.9-4.4 2.9-7.1 0-2.6-1.1-5.2-2.9-7.1-1.9-1.9-4.4-2.9-7.1-2.9s-5.2 1.1-7.1 2.9c-1.9 1.9-2.9 4.4-2.9 7.1 0 2.6 1.1 5.2 2.9 7.1 1.9 1.8 4.5 2.9 7.1 2.9zM256 458c16.5 0 30-13.5 30-30v-53.1c15-9.9 24.1-26.7 24.1-45 0-29.8-24.2-54-54-54s-54 24.2-54 54c0 18.2 9 34.8 23.9 44.8V428c0 16.5 13.5 30 30 30zm-33.9-128.1c0-18.8 15.2-34 34-34 18.7 0 34 15.2 34 34 0 12.9-7.1 24.5-18.7 30.3a9.88 9.88 0 00-5.5 8.9V428c0 5.5-4.5 10-10 10s-10-4.5-10-10v-59c0-3.7-2.1-7.2-5.4-8.9-11.3-5.8-18.4-17.4-18.4-30.2zM396 399c2.6 0 5.2-1.1 7.1-2.9s2.9-4.4 2.9-7.1-1.1-5.2-2.9-7.1-4.4-2.9-7.1-2.9c-2.6 0-5.2 1.1-7.1 2.9s-2.9 4.4-2.9 7.1 1.1 5.2 2.9 7.1 4.5 2.9 7.1 2.9z" />
	</g>
</svg>