<svg xmlns="http://www.w3.org/2000/svg" viewBox="0 0 629 629">
	<path
		d="M310.4 313.3c81.3 0 147.2-65.9 147.2-147.2C457.5 84.9 391.7 19 310.4 19c-81.3 0-147.2 65.9-147.2 147.2.1 81.2 65.9 147.1 147.2 147.1zm0-269.4c67.5 0 122.2 54.7 122.2 122.2s-54.7 122.2-122.2 122.2-122.2-54.7-122.2-122.2c.1-67.4 54.7-122.1 122.2-122.2zm0 306.2c-64 0-123.5 24.8-167.6 70C98 465.9 73.4 528.4 73.4 596.2c0 6.9 5.6 12.5 12.5 12.5h449c6.9 0 12.5-5.6 12.5-12.5 0-67.7-24.6-130.3-69.3-176-44.2-45.1-103.7-70.1-167.7-70.1zM98.6 583.7c2.7-56.4 24.6-107.9 61.9-146.1 39.4-40.3 92.7-62.5 149.8-62.5s110.4 22.2 149.8 62.5c37.4 38.2 59.1 89.7 61.9 146.1H98.6z"
		fill="#6e6e6e" /></svg>